<svg width="16" height="21" viewBox="0 0 16 21" fill="none" xmlns="http://www.w3.org/2000/svg">
<path d="M14.6221 5H2.38683C2.15154 5 1.98041 5.18947 2.00181 5.42105L2.60074 17.6105C2.66491 18.9579 3.7986 20.0316 5.16758 20.0316H11.82C13.189 20.0316 14.3227 18.9789 14.3868 17.6105L14.9858 5.42105C15.0285 5.21053 14.836 5 14.6221 5ZM7.17828 16.7684C7.17828 17.1474 6.87881 17.4421 6.49378 17.4421C6.10876 17.4421 5.80929 17.1474 5.80929 16.7684V8.28421C5.80929 7.90526 6.10876 7.61053 6.49378 7.61053C6.87881 7.61053 7.17828 7.90526 7.17828 8.28421V16.7684ZM11.1997 16.7684C11.1997 17.1474 10.9002 17.4421 10.5152 17.4421C10.1301 17.4421 9.83068 17.1474 9.83068 16.7684V8.28421C9.83068 7.90526 10.1301 7.61053 10.5152 7.61053C10.9002 7.61053 11.1997 7.90526 11.1997 8.28421V16.7684Z" fill="#7D90B2"/>
<path d="M15.1872 1.47368H10.9091V1.43158C10.9091 0.631579 10.2674 0 9.45454 0H6.54545C5.73262 0 5.09091 0.631579 5.09091 1.43158V1.47368H0.812834C0.363636 1.47368 0 1.83158 0 2.27368V3.07368C0 3.51579 0.363636 3.87368 0.812834 3.87368H15.1872C15.6364 3.87368 16 3.51579 16 3.07368V2.27368C16 1.83158 15.6364 1.47368 15.1872 1.47368Z" fill="#7D90B2"/>
</svg>
